<svg xmlns="http://www.w3.org/2000/svg" width="200" height="200" viewBox="0 0 200 200" fill="none">
  <g stroke="#000000" stroke-width="1.2" opacity="0.12">
    <line x1="30" y1="0" x2="30" y2="80"/>
    <line x1="30" y1="80" x2="30" y2="200"/>
    <line x1="80" y1="0" x2="80" y2="60"/>
    <line x1="80" y1="60" x2="80" y2="130"/>
    <line x1="80" y1="130" x2="80" y2="200"/>
    <line x1="130" y1="0" x2="130" y2="40"/>
    <line x1="130" y1="40" x2="130" y2="160"/>
    <line x1="130" y1="160" x2="130" y2="200"/>
    <line x1="170" y1="0" x2="170" y2="100"/>
    <line x1="170" y1="100" x2="170" y2="200"/>
    <line x1="30" y1="80" x2="80" y2="80"/>
    <line x1="80" y1="60" x2="130" y2="60"/>
    <line x1="130" y1="40" x2="170" y2="40"/>
    <line x1="80" y1="130" x2="130" y2="130"/>
    <line x1="130" y1="160" x2="170" y2="160"/>
    <line x1="0" y1="120" x2="30" y2="120"/>
    <line x1="30" y1="80" x2="50" y2="60"/>
    <line x1="130" y1="160" x2="150" y2="180"/>
    <line x1="170" y1="100" x2="190" y2="80"/>
  </g>
  <g fill="#000000" opacity="0.18">
    <circle cx="30" cy="80" r="3.5"/>
    <circle cx="80" cy="130" r="3.5"/>
    <circle cx="130" cy="160" r="3.5"/>
    <circle cx="170" cy="100" r="3.5"/>
  </g>
  <g fill="none" stroke="#000000" stroke-width="1.2" opacity="0.15">
    <circle cx="80" cy="60" r="3"/>
    <circle cx="130" cy="40" r="3"/>
    <circle cx="30" cy="120" r="3"/>
    <circle cx="170" cy="40" r="3"/>
    <circle cx="50" cy="60" r="2.5"/>
    <circle cx="150" cy="180" r="2.5"/>
    <circle cx="190" cy="80" r="2.5"/>
  </g>
</svg>